<?xml version="1.0" standalone="no"?>
<!DOCTYPE svg PUBLIC "-//W3C//DTD SVG 20010904//EN"
 "http://www.w3.org/TR/2001/REC-SVG-20010904/DTD/svg10.dtd">
<svg version="1.0" xmlns="http://www.w3.org/2000/svg"
 width="640.000000pt" height="640.000000pt" viewBox="0 0 640.000000 640.000000"
 preserveAspectRatio="xMidYMid meet">

<g transform="translate(0.000000,640.000000) scale(0.100000,-0.100000)"
fill="#000000" stroke="none">
<path d="M3137 6112 c-19 -21 -23 -82 -7 -98 8 -8 -30 -13 -122 -17 -165 -8
-268 -18 -268 -26 0 -3 7 -14 14 -24 13 -17 23 -17 118 -9 112 11 118 9 118
-41 l0 -28 -26 20 c-41 32 -98 28 -136 -9 -35 -36 -33 -68 9 -112 37 -39 83
-46 128 -19 l35 20 0 -24 c0 -23 44 -65 56 -53 2 3 0 54 -6 114 -5 60 -10 116
-10 125 0 20 27 29 64 22 25 -5 26 -8 27 -72 1 -115 11 -162 38 -179 l24 -16
-5 132 c-4 117 -3 132 12 137 9 3 93 -1 186 -10 93 -8 177 -15 187 -15 9 0 17
-7 17 -15 0 -12 -14 -15 -63 -15 -79 0 -102 -18 -95 -77 3 -21 7 -44 9 -51 6
-18 -44 -47 -67 -38 -18 7 -18 8 -1 17 21 12 22 52 1 73 -35 35 -104 3 -104
-48 0 -32 42 -64 92 -72 21 -4 38 -11 38 -16 0 -5 11 -20 25 -33 33 -34 93
-34 133 0 17 14 32 25 36 25 3 0 11 -18 17 -40 7 -22 16 -40 20 -40 18 0 18
21 3 61 -14 33 -15 45 -5 61 14 22 1 52 -29 68 -30 16 -40 12 -40 -15 0 -31
-23 -42 -55 -27 -29 14 -41 52 -25 82 10 19 19 21 83 19 l72 -2 3 36 c3 35 5
37 37 37 29 0 32 3 28 21 -3 11 -11 23 -17 25 -25 9 -450 42 -488 37 l-41 -4
7 33 c13 65 55 73 140 29 76 -41 75 -15 -1 33 -67 42 -138 50 -166 18z m-161
-267 c19 -14 18 -15 -6 -35 -35 -27 -77 -43 -95 -36 -18 7 -20 57 -3 74 17 17
80 15 104 -3z m390 -46 c3 -6 -3 -20 -14 -32 -19 -19 -22 -19 -28 -4 -13 35
23 66 42 36z m149 -93 l26 -14 -23 -16 c-46 -33 -108 -3 -63 30 23 17 26 17
60 0z"/>
<path d="M2535 5933 c-82 -20 -151 -37 -153 -38 -10 -9 21 -45 36 -41 70 18
70 18 81 -21 15 -51 14 -53 -11 -50 -17 1 -24 -4 -26 -19 -4 -29 146 -157 166
-142 9 8 1 19 -38 45 -49 33 -50 34 -35 57 14 20 22 23 55 19 24 -4 46 -1 54
7 13 10 16 7 21 -17 11 -49 14 -53 41 -63 15 -6 28 -9 30 -8 2 3 -32 160 -51
236 -3 14 -1 22 7 22 7 0 19 4 27 9 12 8 12 12 2 25 -18 21 -30 20 -206 -21z
m117 -129 c-23 -18 -72 -28 -83 -17 -4 4 -9 28 -11 52 l-3 45 45 11 45 11 12
-45 c10 -39 10 -46 -5 -57z"/>
<path d="M4347 5924 c-17 -17 -5 -50 22 -65 23 -13 31 -28 40 -69 6 -29 10
-55 7 -57 -2 -2 -51 19 -110 46 -58 27 -106 46 -106 41 0 -36 23 -59 94 -91
75 -34 83 -42 68 -67 -7 -10 -19 -8 -56 8 -26 11 -58 20 -71 20 -33 0 -55 -36
-55 -90 0 -57 29 -107 75 -126 33 -13 35 -17 35 -59 0 -33 4 -45 15 -45 11 0
15 12 15 49 0 34 4 51 15 55 19 7 19 36 -1 64 -19 27 -44 28 -51 2 -10 -39
-73 -9 -73 34 0 56 39 69 111 36 56 -25 66 -25 72 3 4 12 12 30 19 39 12 16
16 16 61 -4 51 -22 55 -29 32 -48 -22 -18 -19 -47 10 -96 l25 -42 -26 -6 c-31
-8 -44 -1 -44 24 0 30 -21 35 -42 10 -24 -29 -23 -57 2 -72 15 -10 20 -24 20
-60 0 -37 4 -48 16 -48 13 0 15 9 12 45 l-3 44 40 7 c79 13 135 61 135 116 0
28 1 29 22 14 31 -22 38 -20 38 12 0 24 -12 33 -115 90 -63 35 -122 66 -133
68 -14 4 -21 22 -30 87 -12 81 -34 129 -64 135 -7 1 -17 0 -21 -4z m261 -369
c2 -20 -4 -38 -19 -54 -21 -23 -23 -23 -36 -5 -18 24 -16 54 4 76 24 27 47 19
51 -17z"/>
<path d="M3933 5848 c-27 -13 -28 -21 -7 -58 l17 -28 33 20 c32 19 32 19 16
48 -18 32 -25 34 -59 18z"/>
<path d="M2110 5800 c-52 -21 -138 -57 -191 -81 l-96 -44 23 -18 c18 -14 28
-15 43 -7 28 14 31 13 31 -15 0 -29 23 -43 85 -51 50 -7 52 -10 29 -43 -12
-16 -19 -20 -27 -12 -6 6 -19 11 -29 11 -22 0 -23 -28 -2 -58 13 -19 22 -22
46 -17 22 5 39 1 68 -19 30 -20 39 -22 44 -11 3 9 -9 22 -33 36 l-39 21 21 36
c14 24 21 53 22 90 0 47 -4 57 -29 78 -15 14 -27 27 -25 29 2 2 23 10 45 18
l41 14 42 -108 c35 -91 45 -108 67 -113 15 -4 28 -5 30 -3 2 2 -17 55 -41 118
-25 62 -45 116 -45 120 0 3 14 12 31 20 l32 15 -24 16 c-23 14 -30 13 -119
-22z m-76 -122 c23 -33 21 -68 -4 -68 -38 0 -76 60 -53 83 13 14 42 6 57 -15z"/>
<path d="M3883 5678 c-32 -19 -32 -20 -18 -49 18 -33 34 -36 63 -11 20 16 20
18 4 48 l-17 31 -32 -19z"/>
<path d="M2973 5675 c-72 -31 -12 -127 68 -110 32 7 34 12 16 37 -9 11 -18 14
-28 7 -19 -12 -59 -12 -59 1 0 13 54 40 81 40 21 0 21 1 -4 20 -30 23 -32 24
-74 5z"/>
<path d="M1729 5616 c-41 -23 -121 -72 -178 -109 -103 -66 -103 -66 -77 -79
21 -9 32 -9 47 0 25 16 29 15 29 -6 0 -31 22 -42 81 -42 l57 0 -7 -27 c-7 -24
-13 -28 -39 -26 -39 4 -47 -10 -26 -43 16 -23 22 -25 56 -20 25 4 48 1 68 -9
34 -18 50 -19 50 -4 0 5 -17 17 -37 26 -21 8 -39 16 -41 18 -1 1 5 18 13 38
18 42 20 100 4 128 -5 11 -24 28 -41 38 l-30 19 43 25 43 26 56 -99 c46 -82
60 -99 84 -104 16 -4 30 -5 32 -3 2 1 -26 54 -61 117 l-65 115 25 13 c30 15
32 28 7 41 -14 8 -35 0 -93 -33z m-65 -148 c18 -28 24 -52 13 -57 -18 -8 -67
10 -76 28 -25 46 34 73 63 29z"/>
<path d="M4720 5534 c0 -15 8 -32 17 -39 15 -11 11 -21 -39 -101 -71 -114 -67
-105 -54 -137 12 -27 13 -27 81 83 38 60 73 110 78 110 4 0 19 -7 32 -16 25
-16 25 -16 25 13 0 26 -8 35 -62 68 -35 21 -66 40 -70 42 -5 2 -8 -8 -8 -23z"/>
<path d="M1383 5529 c-88 -20 -120 -94 -62 -143 l31 -26 -27 -22 c-24 -18 -25
-22 -11 -30 9 -5 30 -7 45 -3 26 6 34 0 95 -79 57 -73 71 -86 97 -86 16 0 29
3 29 6 0 3 -34 48 -75 101 -41 52 -75 98 -75 103 0 5 11 17 25 28 l25 20 -28
10 c-22 8 -33 6 -51 -9 -22 -18 -24 -18 -37 -2 -39 52 6 105 95 111 46 3 58 8
54 18 -6 16 -65 17 -130 3z"/>
<path d="M2258 5508 l-22 -22 28 -9 c23 -8 30 -6 42 12 8 12 19 21 25 21 16 0
10 -46 -8 -62 -31 -26 -55 -29 -111 -13 -53 16 -80 13 -52 -6 25 -16 83 -29
128 -29 75 0 117 65 72 110 -27 27 -74 26 -102 -2z"/>
<path d="M5006 5363 c-14 -14 -5 -48 20 -74 28 -29 25 -47 -14 -82 -20 -18
-20 -18 -27 2 -8 26 -31 27 -44 4 -5 -10 -12 -47 -15 -83 -4 -36 -9 -77 -12
-92 -4 -21 -2 -28 10 -28 12 0 16 11 16 43 0 51 7 62 43 71 23 5 27 3 27 -15
0 -11 13 -33 30 -49 l29 -27 -24 -23 c-25 -24 -32 -54 -17 -77 6 -9 36 17 96
83 l88 95 24 -22 c19 -18 24 -19 24 -7 0 9 2 23 5 30 6 16 -248 262 -259 251z
m154 -198 c12 -14 9 -21 -21 -51 l-35 -35 -34 23 c-18 13 -35 28 -37 33 -2 6
11 27 28 48 l31 37 27 -19 c15 -11 34 -27 41 -36z"/>
<path d="M1062 5093 c-99 -107 -100 -108 -74 -116 24 -7 33 -1 92 63 61 67 66
70 82 54 16 -17 15 -20 -22 -61 -44 -47 -52 -89 -22 -116 10 -9 49 -23 86 -32
57 -13 71 -14 77 -3 6 10 -2 15 -31 20 -55 10 -79 25 -86 54 -5 21 0 32 25 57
l31 31 47 -46 c40 -39 53 -46 76 -41 15 3 27 8 27 12 0 3 -42 45 -92 92 -90
84 -92 87 -75 106 20 22 14 33 -19 33 -15 0 -53 -33 -122 -107z"/>
<path d="M5284 5077 c-4 -18 -1 -36 9 -51 15 -22 14 -25 -17 -55 -21 -20 -41
-30 -56 -29 -20 3 -25 -3 -33 -35 -12 -49 -4 -69 25 -62 18 4 29 -2 50 -28
l27 -34 -28 -21 c-23 -16 -27 -26 -23 -51 2 -17 6 -31 8 -31 3 0 48 38 102 84
72 63 100 82 109 74 16 -13 44 -68 39 -77 -2 -3 -43 -33 -90 -66 -79 -55 -86
-63 -86 -94 0 -25 3 -31 13 -24 6 6 54 41 106 78 l95 68 23 -29 c13 -16 61
-96 108 -177 66 -116 81 -149 69 -154 -8 -3 -16 -4 -18 -2 -1 2 -15 25 -30 51
-40 72 -103 75 -145 8 -14 -23 -19 -25 -40 -14 -42 22 -56 58 -17 48 53 -13
76 59 30 95 -33 26 -45 26 -75 2 -27 -22 -30 -78 -5 -115 14 -22 14 -27 0 -55
-29 -57 11 -127 78 -137 l38 -7 -25 -33 c-28 -36 -32 -54 -12 -54 7 0 23 18
37 40 16 26 33 40 49 42 32 4 52 58 31 83 -12 14 -15 14 -31 -1 -15 -14 -21
-14 -34 -4 -20 16 -19 64 1 84 30 30 62 20 92 -30 48 -81 46 -79 73 -61 33 23
48 21 61 -9 11 -24 13 -25 25 -8 7 10 13 23 13 29 0 12 -207 385 -219 395 -3
3 -14 15 -25 27 -15 19 -16 25 -6 38 7 8 25 15 41 15 41 0 69 -48 69 -117 0
-40 4 -53 15 -53 12 0 15 13 15 58 0 71 -13 118 -42 149 -29 31 -72 30 -106
-4 l-26 -26 -21 28 c-21 30 -185 226 -216 259 -17 19 -18 19 -25 -7z m98 -210
c-47 -50 -58 -51 -88 -11 l-28 36 40 33 39 33 32 -31 33 -31 -28 -29z m128
-367 c0 -15 -7 -20 -25 -20 -24 0 -34 18 -18 33 15 15 43 7 43 -13z m-6 -146
c19 -7 22 -64 3 -64 -22 0 -57 31 -57 51 0 19 23 25 54 13z"/>
<path d="M885 4889 c-86 -102 -223 -320 -311 -494 -42 -82 -81 -156 -86 -162
-8 -10 -3 -13 21 -13 29 0 34 6 77 93 25 50 48 94 50 96 5 6 64 -21 64 -29 0
-4 -11 -11 -25 -14 -31 -8 -65 -60 -65 -99 0 -17 10 -38 26 -54 22 -22 32 -25
67 -20 55 7 97 52 97 102 0 39 2 40 28 24 15 -9 24 -8 46 7 l28 18 -116 58
c-64 32 -116 62 -116 67 0 5 28 55 63 112 91 150 91 149 105 149 27 0 22 -30
-12 -84 -20 -31 -32 -57 -28 -57 4 -1 27 -2 52 -3 34 -1 45 -5 48 -19 7 -33
-17 -47 -79 -47 -46 0 -59 -3 -59 -15 0 -12 14 -15 65 -15 71 0 117 17 135 49
26 49 2 81 -60 81 l-31 0 18 30 c9 17 21 30 26 30 4 0 31 -16 59 -34 49 -34
52 -34 80 -20 l30 15 -111 70 c-106 68 -110 71 -99 95 6 13 17 24 24 24 7 0
17 7 22 15 6 13 25 2 97 -55 50 -38 94 -70 100 -69 60 6 57 12 -51 98 l-105
83 20 22 c28 29 26 36 -7 36 -22 0 -40 -14 -87 -71z m-135 -571 c0 -65 -9 -88
-34 -88 -50 0 -63 64 -21 105 38 38 55 33 55 -17z"/>
<path d="M2485 4808 c-11 -6 -41 -30 -66 -53 -53 -50 -103 -69 -179 -69 -68 0
-101 20 -130 80 -12 24 -24 44 -26 44 -16 0 -73 -38 -111 -73 -46 -42 -99
-132 -85 -141 5 -3 42 -9 83 -15 41 -5 88 -15 104 -23 38 -17 194 -121 195
-129 0 -4 -21 -12 -47 -19 -79 -21 -88 -35 -104 -159 -14 -111 -12 -219 5
-273 l15 -47 -32 -20 c-18 -11 -50 -38 -72 -60 l-39 -41 33 -103 c18 -56 36
-105 40 -110 4 -4 25 -1 47 7 38 13 41 12 67 -10 46 -40 79 -28 114 40 l20 39
16 -40 c20 -50 40 -67 72 -59 33 8 43 31 56 126 13 92 4 128 -40 159 -14 11
-34 33 -44 50 l-18 31 36 0 c29 0 37 -5 45 -25 5 -14 25 -33 44 -42 34 -16 35
-15 66 10 l31 27 37 -20 c20 -11 51 -20 69 -20 37 0 46 20 63 143 13 101 13
382 0 408 -13 23 -36 24 -102 3 -39 -13 -52 -14 -58 -5 -4 7 -25 15 -48 18
-32 4 -47 1 -68 -16 -15 -11 -40 -21 -57 -21 -30 0 -30 0 -11 21 10 12 39 35
64 52 65 44 129 107 145 144 9 22 27 37 60 52 46 20 46 20 31 48 -41 80 -156
127 -221 91z"/>
<path d="M3561 4795 c-187 -41 -399 -141 -478 -227 l-23 -24 223 -156 c303
-213 677 -526 779 -653 65 -80 83 -122 123 -289 19 -79 49 -182 68 -229 30
-77 121 -237 183 -326 41 -59 57 -133 56 -266 -1 -176 -54 -421 -129 -600 -55
-130 -140 -355 -134 -355 20 0 174 100 221 144 30 28 102 92 159 141 322 279
459 597 478 1105 9 248 -20 481 -83 675 -38 116 -148 346 -207 434 -155 232
-321 376 -591 512 -153 77 -163 80 -300 104 -156 28 -249 30 -345 10z"/>
<path d="M5125 4736 c-29 -21 -25 -80 8 -113 28 -29 31 -29 41 3 5 15 0 24
-19 34 -27 14 -34 40 -11 40 7 0 25 -9 39 -20 33 -26 37 -25 37 8 0 20 -8 32
-29 45 -35 21 -42 21 -66 3z"/>
<path d="M1847 4502 c-42 -46 -47 -81 -47 -337 0 -242 0 -245 21 -245 11 0 34
8 50 17 28 17 30 16 84 -11 99 -50 113 -27 126 204 4 91 12 204 15 251 8 102
7 103 -86 105 -36 1 -82 9 -102 18 -46 20 -42 20 -61 -2z"/>
<path d="M1315 4498 c-52 -19 -116 -71 -141 -114 -30 -52 -42 -153 -25 -221
17 -69 51 -114 109 -146 73 -40 132 -48 200 -29 54 15 55 15 73 -7 36 -44 25
-72 -41 -114 -75 -46 -100 -85 -100 -152 0 -83 31 -132 118 -184 56 -35 72
-49 72 -67 0 -13 -4 -24 -8 -24 -12 0 -30 -42 -42 -94 -7 -31 -5 -68 5 -132 8
-49 15 -127 15 -174 0 -157 71 -484 143 -659 56 -135 204 -329 355 -465 344
-309 526 -412 887 -500 174 -42 244 -51 425 -51 187 0 263 11 424 62 220 69
341 164 428 336 30 61 129 343 178 512 95 327 78 498 -76 735 -60 93 -92 172
-143 360 -100 361 -184 461 -666 796 -228 159 -431 274 -511 290 -29 6 -35 2
-73 -48 -85 -113 -124 -246 -124 -418 1 -141 12 -180 85 -287 65 -94 73 -130
59 -258 -11 -94 -7 -150 12 -176 22 -30 186 -60 231 -43 18 7 21 36 6 64 -10
20 -59 40 -96 40 -23 0 -24 4 -24 63 -1 134 -29 256 -80 337 -23 36 -70 174
-70 203 0 13 63 -24 111 -65 71 -60 112 -68 334 -68 203 0 315 -13 428 -51 78
-25 151 -74 173 -115 16 -30 16 -31 -20 -78 -42 -56 -45 -88 -11 -122 25 -25
105 -64 130 -64 9 0 18 -22 25 -57 26 -132 38 -160 105 -256 37 -54 76 -122
87 -150 11 -29 34 -81 51 -117 30 -60 32 -71 31 -165 -1 -87 -6 -115 -39 -215
-21 -63 -46 -151 -55 -195 -63 -286 -231 -551 -402 -634 -104 -51 -177 -65
-323 -64 -149 1 -276 28 -382 82 -112 56 -272 227 -325 347 -31 72 -68 123
-99 140 -40 20 -140 18 -266 -7 -127 -25 -232 -28 -288 -9 -62 20 -179 89
-233 136 -64 56 -106 122 -142 225 -34 95 -37 153 -14 249 40 169 225 327 399
338 55 3 96 -2 195 -26 69 -17 159 -34 200 -37 43 -4 96 -15 124 -28 47 -21
48 -21 62 -2 32 44 8 106 -49 124 -17 6 -88 10 -157 9 -122 -1 -127 0 -219 36
-60 24 -118 39 -160 43 -59 5 -76 1 -156 -29 -146 -56 -164 -55 -207 9 -21 33
-23 76 -6 171 15 87 7 113 -48 169 l-45 45 28 40 c15 22 36 52 46 67 14 21 17
42 15 104 l-3 78 -62 58 c-83 77 -89 111 -33 181 18 22 20 43 22 193 3 194 6
187 -91 208 -31 7 -85 26 -121 42 -73 33 -166 44 -215 25z"/>
<path d="M484 4202 c-6 -4 -32 -69 -57 -144 -41 -125 -44 -138 -27 -138 29 0
44 22 70 103 23 77 36 89 68 68 10 -6 8 -22 -13 -76 -30 -81 -24 -94 34 -76
50 14 61 30 34 48 -18 12 -20 18 -10 48 6 19 13 35 17 35 4 0 32 -8 62 -19 53
-18 55 -18 79 -1 13 10 22 21 19 23 -3 2 -58 22 -123 43 -117 38 -118 39 -113
66 4 22 2 28 -12 28 -9 0 -22 -4 -28 -8z"/>
<path d="M5828 4020 c-17 -30 -17 -30 12 -45 16 -8 31 -15 34 -15 7 0 39 61
34 65 -9 7 -48 25 -55 25 -4 0 -16 -14 -25 -30z"/>
<path d="M5660 3983 c-8 -16 -16 -31 -18 -35 -3 -7 57 -42 63 -36 1 2 10 17
18 34 16 31 16 31 -11 45 -15 7 -30 15 -33 16 -3 2 -12 -9 -19 -24z"/>
<path d="M5790 3265 c0 -13 8 -29 18 -34 9 -6 11 -11 5 -11 -7 0 -13 -11 -13
-25 l0 -25 98 6 c53 4 98 8 100 9 2 2 0 13 -3 26 -5 22 -10 24 -78 24 -71 0
-72 0 -75 28 -3 21 -9 27 -28 27 -19 0 -24 -5 -24 -25z"/>
<path d="M370 3248 l0 -27 85 -3 85 -3 -90 -50 c-79 -44 -90 -53 -90 -77 0
-27 1 -28 58 -28 33 0 93 -3 135 -6 l77 -7 0 25 c0 23 -5 26 -52 32 -29 3 -69
6 -88 6 -33 0 -29 4 57 53 81 45 93 55 93 79 l0 27 -135 3 -135 3 0 -27z"/>
<path d="M3256 3199 c-87 -36 -100 -47 -84 -66 6 -8 26 -20 44 -28 26 -11 41
-29 70 -87 52 -105 67 -118 129 -118 28 0 89 11 136 25 90 26 158 32 191 14
11 -6 29 -32 41 -57 18 -40 22 -70 25 -212 3 -131 1 -168 -10 -177 -20 -16
-269 -91 -382 -114 -232 -48 -426 7 -426 121 0 12 13 54 29 93 42 107 45 129
23 179 -31 71 -146 160 -187 145 -12 -5 -15 -18 -13 -54 3 -47 4 -48 56 -72
49 -23 52 -26 52 -62 0 -21 -13 -72 -30 -114 -33 -84 -38 -138 -14 -193 65
-158 294 -192 664 -101 121 30 292 85 354 114 30 14 66 57 66 78 0 2 -18 9
-40 16 l-40 12 0 92 c0 51 -7 139 -15 197 -8 58 -15 108 -15 113 0 17 -86 100
-122 118 -54 28 -100 24 -189 -16 -43 -20 -101 -39 -129 -42 l-50 -6 -36 77
c-32 68 -35 80 -24 100 7 15 9 30 4 38 -8 13 -20 11 -78 -13z"/>
<path d="M5865 3143 c-66 -16 -89 -107 -40 -153 20 -19 37 -24 77 -24 43 0 54
4 74 28 31 35 32 93 4 124 -12 12 -25 22 -30 22 -14 0 -13 -43 1 -57 19 -19 6
-58 -20 -61 -24 -4 -24 -3 -18 62 7 71 6 72 -48 59z m15 -84 c0 -33 -3 -40
-17 -37 -25 5 -29 49 -7 65 24 18 24 18 24 -28z"/>
<path d="M380 3000 c-24 -24 -26 -57 -5 -87 10 -14 12 -24 5 -28 -5 -3 -10
-15 -10 -25 0 -17 6 -18 73 -13 92 8 115 16 123 48 14 55 -25 139 -55 120 -16
-9 -13 -42 4 -49 17 -6 21 -56 5 -56 -22 0 -26 4 -42 48 -25 66 -59 81 -98 42z
m70 -56 c15 -38 12 -46 -11 -42 -27 4 -44 30 -36 52 10 24 36 19 47 -10z"/>
<path d="M5796 2935 c-3 -9 -18 -15 -36 -15 -16 0 -30 -3 -30 -6 0 -18 24 -44
40 -44 11 0 20 -7 20 -15 0 -8 9 -15 20 -15 11 0 20 5 20 10 0 6 32 10 75 10
73 0 76 1 86 27 5 14 8 32 5 40 -7 18 -46 17 -46 -2 0 -12 -13 -15 -55 -15
-48 0 -55 2 -55 20 0 24 -35 28 -44 5z"/>
<path d="M536 2825 c-9 -9 -41 -20 -72 -25 -62 -10 -84 -23 -84 -50 0 -51 34
-68 50 -25 8 20 16 25 44 25 19 0 41 3 50 6 12 4 16 0 16 -15 0 -26 28 -28 37
-3 9 23 23 32 51 32 23 0 23 0 5 25 -13 18 -24 24 -40 20 -16 -4 -23 -1 -23
10 0 19 -14 19 -34 0z"/>
<path d="M5808 2807 c-26 -21 -39 -63 -28 -92 6 -16 6 -25 0 -25 -6 0 -10 -11
-10 -24 0 -22 5 -24 98 -35 53 -7 114 -15 135 -18 35 -5 37 -4 37 20 0 23 -5
27 -45 32 -43 7 -44 8 -30 28 21 31 19 62 -8 93 -19 22 -34 28 -78 31 -36 2
-60 -1 -71 -10z m96 -43 c9 -4 21 -15 27 -26 24 -44 -50 -76 -99 -42 -53 37 7
93 72 68z"/>
<path d="M618 2685 c3 -18 11 -25 28 -25 13 0 24 4 24 9 0 24 -14 41 -35 41
-18 0 -21 -4 -17 -25z"/>
<path d="M475 2681 c-73 -15 -80 -18 -77 -38 4 -27 12 -28 115 -8 43 8 80 15
81 15 2 0 1 11 -2 25 -5 29 -7 29 -117 6z"/>
<path d="M485 2591 c-49 -20 -72 -74 -55 -126 15 -45 44 -65 96 -65 80 0 124
70 89 143 -23 50 -77 69 -130 48z m85 -61 c11 -11 20 -24 20 -30 0 -20 -41
-50 -69 -50 -55 0 -70 62 -21 87 34 17 47 16 70 -7z"/>
<path d="M5757 2579 c-26 -41 -31 -87 -13 -114 9 -14 20 -25 25 -25 14 0 21
43 10 56 -13 16 6 54 26 54 11 0 15 -13 15 -53 0 -40 5 -58 18 -70 45 -41 97
-4 90 62 -2 27 1 42 9 45 7 3 13 14 13 24 0 15 -10 21 -42 25 -144 21 -135 21
-151 -4z m124 -49 c23 -13 25 -55 3 -64 -24 -9 -34 2 -34 40 0 37 2 39 31 24z"/>
<path d="M5704 2375 c-10 -15 -14 -37 -12 -56 4 -27 2 -30 -16 -25 -67 20 -74
19 -78 -5 -3 -22 4 -26 107 -56 164 -48 152 -46 157 -18 5 23 0 26 -63 45 -74
22 -95 48 -65 78 14 14 22 13 85 -5 70 -20 70 -20 77 -1 8 26 0 33 -68 52 -79
23 -104 21 -124 -9z"/>
<path d="M610 2380 c-14 -5 -51 -16 -82 -25 -44 -13 -58 -21 -58 -35 0 -28 11
-30 71 -15 73 20 86 19 100 -7 16 -29 -10 -50 -85 -68 -56 -13 -64 -22 -47
-49 8 -12 19 -12 73 3 34 10 73 24 86 32 30 20 29 67 -3 99 -14 15 -19 25 -11
25 9 0 12 9 8 25 -5 27 -12 29 -52 15z"/>
<path d="M5589 2205 c-29 -15 -59 -70 -59 -105 0 -46 31 -88 83 -115 59 -29
75 -30 122 -11 64 27 92 104 60 166 -17 33 -36 38 -55 15 -9 -11 -8 -19 4 -37
38 -54 4 -104 -65 -95 -23 3 -54 14 -68 25 -47 35 -34 112 20 112 14 0 19 7
19 30 0 34 -18 39 -61 15z"/>
<path d="M670 2155 c0 -15 6 -25 15 -25 23 0 40 -39 23 -56 -12 -12 -19 -8
-46 31 -25 36 -37 45 -62 45 -57 0 -76 -73 -29 -116 10 -9 16 -20 14 -24 -3
-5 -2 -17 2 -28 8 -18 12 -17 91 19 91 42 97 54 68 124 -22 53 -76 74 -76 30z
m-26 -79 c18 -29 7 -41 -30 -32 -17 5 -24 13 -24 31 0 33 32 33 54 1z"/>
<path d="M733 1976 c-62 -28 -113 -55 -113 -61 0 -5 4 -16 9 -24 8 -12 31 -5
130 39 67 30 121 57 121 61 0 18 -13 39 -24 38 -6 -1 -62 -24 -123 -53z"/>
<path d="M828 1802 c-65 -37 -118 -70 -118 -73 0 -3 6 -13 13 -23 12 -16 18
-14 90 28 l76 45 -50 -95 c-44 -82 -49 -97 -38 -112 7 -9 14 -19 15 -20 3 -4
188 99 217 120 15 12 16 16 4 32 -14 19 -17 18 -86 -22 -40 -23 -74 -42 -76
-42 -2 0 19 41 46 91 44 81 48 93 37 114 l-13 24 -117 -67z"/>
<path d="M5514 1860 c-50 -20 -69 -88 -38 -135 9 -13 35 -31 59 -40 37 -15 47
-15 72 -3 40 18 67 77 53 113 -10 27 -12 27 -27 12 -10 -9 -17 -29 -18 -43 0
-32 -29 -54 -46 -37 -9 9 -4 24 20 62 17 28 31 53 31 55 0 6 -61 26 -74 25 -6
0 -21 -4 -32 -9z m46 -50 c0 -6 -7 -22 -16 -36 -13 -19 -20 -22 -30 -13 -17
14 -18 31 -2 47 15 15 48 16 48 2z"/>
<path d="M5344 1708 c-4 -15 -1 -26 12 -37 11 -9 19 -23 19 -31 0 -9 10 -15
26 -15 14 0 44 -12 66 -27 61 -40 84 -40 110 -2 16 25 16 27 -2 40 -15 12 -20
11 -30 -2 -10 -15 -16 -14 -56 11 -56 35 -54 32 -40 49 10 12 8 17 -9 26 -16
9 -21 8 -26 -5 -6 -14 -9 -14 -30 0 -30 19 -31 19 -40 -7z"/>
<path d="M5311 1565 c-31 -36 -42 -87 -21 -100 16 -10 41 15 35 35 -7 22 31
58 46 43 8 -8 6 -20 -5 -41 -34 -66 -5 -130 52 -115 23 6 52 49 52 78 0 8 5
14 11 13 11 -3 37 28 29 35 -39 29 -140 87 -152 87 -9 0 -30 -16 -47 -35z
m117 -64 c22 -13 11 -56 -15 -59 -24 -4 -30 17 -17 52 7 18 13 19 32 7z"/>
<path d="M916 1560 c-18 -17 -37 -41 -40 -55 -12 -48 41 -115 91 -115 26 0 27
3 13 31 -6 10 -19 19 -30 19 -21 0 -37 40 -25 59 11 19 21 12 57 -39 32 -46
36 -48 55 -35 33 23 48 69 33 105 -28 67 -97 80 -154 30z m114 -55 c0 -36 -14
-38 -40 -3 -17 24 -20 32 -9 38 20 13 49 -8 49 -35z"/>
<path d="M5160 1455 c0 -14 4 -33 9 -43 5 -9 12 -25 15 -35 4 -12 12 -16 24
-13 11 4 37 -8 71 -34 29 -22 57 -40 62 -40 14 0 49 39 49 54 0 21 -19 30 -35
16 -12 -10 -23 -6 -59 21 -33 25 -41 37 -34 47 7 8 7 17 -2 27 -12 14 -15 14
-30 0 -15 -14 -18 -13 -35 5 -24 27 -35 25 -35 -5z"/>
<path d="M1058 1412 c-43 -26 -62 -75 -48 -118 26 -76 118 -95 173 -34 39 44
37 92 -7 136 -39 39 -75 44 -118 16z m90 -44 c19 -19 14 -55 -10 -78 -26 -24
-51 -26 -72 -4 -22 22 -20 41 9 69 26 27 54 32 73 13z"/>
<path d="M5057 1369 c-55 -41 -72 -104 -37 -139 27 -27 76 -25 125 5 47 29 70
31 79 8 12 -29 -27 -68 -65 -66 -21 1 -37 -5 -45 -15 -31 -42 55 -58 107 -21
57 40 75 108 39 147 -35 37 -64 37 -126 2 -56 -31 -84 -33 -84 -7 0 22 40 52
67 52 32 0 55 31 33 45 -24 16 -63 11 -93 -11z"/>
<path d="M1219 1253 c-98 -106 -95 -102 -76 -120 15 -15 20 -13 72 36 52 49
57 52 77 39 12 -8 23 -19 25 -24 2 -5 -19 -35 -47 -66 -47 -53 -49 -56 -31
-72 17 -15 21 -13 74 43 33 34 57 69 57 81 0 27 -43 70 -70 70 -12 0 -18 4
-15 10 7 11 -11 40 -24 40 -4 0 -23 -17 -42 -37z"/>
<path d="M4856 1145 c-4 -14 -2 -34 3 -44 6 -10 8 -21 4 -24 -9 -9 18 -38 28
-31 5 3 30 -17 55 -45 51 -57 70 -62 103 -28 19 21 20 25 6 37 -11 9 -18 10
-29 1 -11 -9 -21 -2 -49 32 -26 32 -33 47 -25 55 8 8 8 15 -2 27 -9 11 -16 13
-24 5 -7 -7 -18 -2 -37 16 l-26 25 -7 -26z"/>
<path d="M1392 1113 c-10 -4 -9 -9 4 -24 9 -10 20 -16 25 -13 15 9 49 -16 49
-36 0 -25 -14 -25 -56 1 -44 27 -84 22 -103 -13 -14 -25 -14 -29 5 -55 12 -16
33 -29 48 -31 17 -2 26 -8 23 -16 -3 -7 4 -18 16 -25 17 -11 21 -11 29 3 5 9
27 36 48 62 50 56 51 83 5 123 -33 29 -62 37 -93 24z m13 -105 c14 -6 25 -14
25 -18 0 -10 -23 -30 -36 -30 -20 0 -44 29 -38 45 7 18 15 19 49 3z"/>
<path d="M1592 1028 c-7 -7 -20 -13 -30 -13 -10 0 -17 -8 -17 -21 0 -11 -17
-45 -38 -76 -33 -47 -37 -59 -28 -77 18 -33 46 -44 62 -24 11 13 11 17 2 20
-20 7 -16 21 19 69 24 34 34 41 45 33 10 -9 17 -8 28 1 14 12 14 15 0 30 -14
15 -13 18 5 35 11 10 20 22 20 27 0 13 -54 10 -68 -4z"/>
<path d="M4805 1028 c-56 -31 -92 -88 -69 -111 10 -10 44 17 44 35 0 22 38 44
52 30 7 -7 1 -23 -21 -50 -17 -22 -31 -49 -31 -61 0 -24 33 -61 54 -61 19 0
64 37 71 60 3 10 12 17 19 14 7 -3 18 1 24 9 12 14 -5 39 -80 119 -29 31 -34
32 -63 16z m73 -120 c4 -32 -22 -56 -43 -38 -13 11 -13 16 2 41 20 34 37 33
41 -3z"/>
<path d="M4676 934 c-9 -8 -16 -23 -16 -32 0 -13 -2 -14 -9 -4 -7 11 -12 11
-28 1 -20 -12 -19 -14 25 -83 60 -96 63 -98 86 -81 18 14 17 16 -13 63 -34 53
-40 89 -16 98 19 8 20 54 1 54 -8 0 -22 -7 -30 -16z"/>
<path d="M1643 910 c-29 -12 -63 -67 -63 -102 0 -39 47 -87 90 -94 78 -11 142
75 106 144 -26 51 -82 72 -133 52z m89 -65 c10 -22 8 -30 -9 -53 -37 -50 -103
-34 -89 22 14 57 77 77 98 31z"/>
<path d="M1823 780 c-35 -60 -63 -114 -63 -119 0 -6 8 -15 18 -20 16 -9 27 5
86 107 63 108 66 117 50 129 -10 7 -20 13 -23 13 -3 0 -34 -50 -68 -110z"/>
<path d="M4489 817 c-25 -16 -35 -31 -37 -54 -3 -28 -1 -31 18 -26 12 3 25 16
30 28 10 26 39 40 54 25 7 -7 -1 -22 -26 -48 -46 -49 -51 -65 -27 -96 27 -34
54 -33 91 4 16 17 33 28 37 25 5 -2 16 2 26 9 17 12 17 14 -2 42 -11 16 -32
48 -47 72 -31 50 -63 55 -117 19z m99 -109 c-2 -27 -7 -33 -27 -33 -32 0 -37
19 -12 44 30 30 43 26 39 -11z"/>
<path d="M4333 818 c-18 -9 -20 -14 -11 -33 9 -20 14 -22 34 -13 27 13 29 18
12 40 -10 12 -18 14 -35 6z"/>
<path d="M1931 747 c-37 -19 -65 -63 -65 -103 0 -28 7 -43 32 -65 70 -63 172
-14 172 81 0 34 -46 90 -73 90 -9 0 -21 2 -29 5 -7 3 -24 -1 -37 -8z m83 -70
c8 -22 6 -32 -11 -55 -35 -47 -83 -37 -83 17 0 67 74 97 94 38z"/>
<path d="M4365 747 c-17 -13 -15 -19 31 -105 42 -79 47 -94 37 -111 -15 -23
-7 -51 13 -51 19 0 54 36 54 55 0 17 -102 225 -110 225 -4 0 -14 -6 -25 -13z"/>
<path d="M4284 708 l-22 -10 24 -54 c28 -63 30 -87 9 -104 -24 -20 -44 -4 -71
60 -27 60 -36 68 -64 50 -12 -7 -9 -20 20 -80 48 -98 79 -113 130 -61 16 16
31 24 33 18 2 -6 10 -6 25 2 l21 11 -33 74 c-49 107 -48 105 -72 94z"/>
<path d="M3954 661 c-46 -28 -64 -59 -64 -109 0 -146 148 -203 251 -98 27 27
27 27 11 76 -9 28 -21 50 -27 50 -6 0 -32 -7 -57 -16 -37 -12 -45 -19 -41 -35
6 -22 12 -23 46 -10 38 14 44 -22 9 -49 -58 -46 -128 -8 -139 76 -4 33 -1 43
21 63 24 23 55 25 96 7 9 -3 24 0 35 9 20 15 20 15 -5 35 -32 25 -95 26 -136
1z"/>
<path d="M2109 642 c-25 -23 -33 -38 -36 -78 -5 -47 -3 -53 23 -73 20 -16 37
-21 56 -17 25 5 26 3 19 -17 -13 -34 -48 -33 -83 2 -38 39 -48 39 -48 2 0 -37
38 -63 100 -69 57 -5 59 -3 110 124 31 74 37 100 28 106 -19 11 -36 10 -41 -4
-3 -8 -6 -6 -6 4 -1 21 -39 48 -68 48 -13 0 -37 -13 -54 -28z m99 -38 c18 -32
-14 -94 -48 -94 -39 0 -52 48 -24 88 18 26 59 29 72 6z"/>
<path d="M2308 498 l-3 -113 -32 0 c-25 0 -33 -4 -33 -17 0 -23 36 -41 66 -34
27 7 188 201 179 216 -14 23 -45 7 -82 -42 l-38 -53 -3 73 c-2 39 -7 72 -12
72 -4 0 -15 3 -24 6 -13 5 -16 -10 -18 -108z"/>
<path d="M2620 599 c0 -2 -11 -62 -24 -134 -14 -71 -24 -130 -23 -131 1 -1 14
-4 28 -7 26 -7 27 -5 34 49 l7 56 59 -6 c54 -6 59 -5 59 13 0 20 -8 24 -67 36
-29 6 -33 11 -33 37 0 31 0 31 45 25 25 -4 56 -9 70 -13 22 -5 25 -3 25 18 0
22 -6 26 -67 37 -38 7 -78 15 -90 18 -13 3 -23 4 -23 2z"/>
<path d="M3568 484 c-13 -13 -20 -14 -38 -4 -25 14 -62 7 -84 -16 -13 -13 -16
-13 -16 -1 0 10 -8 13 -26 9 -20 -4 -24 -9 -20 -26 2 -11 8 -54 12 -93 7 -72
7 -73 36 -73 23 0 28 4 24 18 -2 9 -7 40 -11 68 -5 40 -3 55 10 68 34 33 49
12 60 -81 6 -59 9 -63 32 -63 l26 0 -7 71 c-8 72 1 99 30 99 19 0 31 -33 39
-101 6 -53 7 -56 31 -51 14 2 24 11 24 21 0 38 -22 146 -32 158 -15 18 -71 16
-90 -3z"/>
<path d="M2829 451 c-64 -65 -20 -171 71 -171 33 0 48 6 71 29 64 65 20 171
-71 171 -33 0 -48 -6 -71 -29z m105 -27 c31 -30 7 -104 -34 -104 -44 0 -64 55
-34 98 18 26 46 28 68 6z"/>
<path d="M3030 370 l0 -100 25 0 c24 0 25 3 25 56 0 67 13 94 44 94 22 0 42
31 28 44 -10 10 -48 6 -60 -6 -9 -9 -12 -9 -12 0 0 7 -11 12 -25 12 l-25 0 0
-100z"/>
<path d="M3186 463 c-17 -4 -18 -13 -14 -84 5 -90 19 -112 67 -112 17 0 40 8
51 18 18 16 20 16 20 2 0 -12 8 -17 26 -17 20 0 25 4 20 16 -3 9 -6 54 -6 100
0 83 0 84 -25 84 -24 0 -25 -2 -25 -75 0 -63 -3 -76 -19 -85 -37 -19 -48 -3
-55 81 -4 43 -10 78 -14 78 -4 -1 -15 -3 -26 -6z"/>
<path d="M3734 358 c3 -13 6 -26 6 -30 0 -4 7 -5 15 -2 18 7 19 0 4 -28 -13
-25 -5 -35 16 -18 15 13 20 56 9 84 -3 9 -17 16 -31 16 -21 0 -24 -4 -19 -22z"/>
</g>
</svg>
